{"accessors":[{"bufferView":0,"byteOffset":0,"componentType":5123,"count":180,"type":"SCALAR"},{"bufferView":1,"byteOffset":0,"componentType":5126,"count":112,"max":[0.0100000035017729,0.00999999977648258,0.0210430696606636],"min":[-0.01000000350177,-0.00999999977648,-0.01118636317551],"type":"VEC3"},{"bufferView":2,"byteOffset":0,"componentType":5126,"count":112,"type":"VEC3"},{"bufferView":3,"byteOffset":0,"componentType":5126,"count":112,"type":"VEC2"}],"asset":{"generator":"FBX2glTF v0.13.1","version":"2.0"},"bufferViews":[{"buffer":0,"byteLength":360,"byteOffset":0,"target":34963},{"buffer":0,"byteLength":1344,"byteOffset":360,"target":34962},{"buffer":0,"byteLength":1344,"byteOffset":1704,"target":34962},{"buffer":0,"byteLength":896,"byteOffset":3048,"target":34962}],"buffers":[{"byteLength":3944,"uri":"bullet.bin"}],"materials":[{"alphaMode":"OPAQUE","doubleSided":false,"extras":{"fromFBX":{"isTruePBR":false,"shadingModel":"Phong"}},"name":"Material","pbrMetallicRoughness":{"baseColorFactor":[0.800000011920929,0.800000011920929,0.800000011920929,1],"metallicFactor":0.400000005960464,"roughnessFactor":0.272165536880493}}],"meshes":[{"name":"Bullet","primitives":[{"attributes":{"NORMAL":2,"POSITION":1,"TEXCOORD_0":3},"indices":0,"material":0,"mode":4}]}],"nodes":[{"mesh":0,"name":"Bullet","rotation":[-0.70710682868957,0,0,0.707106709480286],"scale":[100,100,100],"translation":[0,0,0]}],"samplers":[{}],"scene":0,"scenes":[{"name":"Root Scene","nodes":[0]}]}