{"accessors":[{"bufferView":0,"byteOffset":0,"componentType":5123,"count":120,"type":"SCALAR"},{"bufferView":1,"byteOffset":0,"componentType":5126,"count":72,"max":[0.00000000133515198896816,0.00241048075258732,0.0399999991059303],"min":[-0.01999999955297,-0.00241048424505,0],"type":"VEC3"},{"bufferView":2,"byteOffset":0,"componentType":5126,"count":72,"type":"VEC3"},{"bufferView":3,"byteOffset":0,"componentType":5126,"count":72,"type":"VEC2"},{"bufferView":4,"byteOffset":0,"componentType":5123,"count":120,"type":"SCALAR"},{"bufferView":5,"byteOffset":0,"componentType":5126,"count":72,"max":[0.0199999995529652,0.00241048075258732,0.0399999991059303],"min":[-0.00000000068347,-0.00241048424505,-0],"type":"VEC3"},{"bufferView":6,"byteOffset":0,"componentType":5126,"count":72,"type":"VEC3"},{"bufferView":7,"byteOffset":0,"componentType":5126,"count":72,"type":"VEC2"},{"bufferView":8,"byteOffset":0,"componentType":5123,"count":36,"type":"SCALAR"},{"bufferView":9,"byteOffset":0,"componentType":5126,"count":24,"max":[0.00115842861123383,0.00116210128180683,0.0399406626820564],"min":[-0.00116577430163,-0.00116210116539,0.0000572287826798856],"type":"VEC3"},{"bufferView":10,"byteOffset":0,"componentType":5126,"count":24,"type":"VEC3"},{"bufferView":11,"byteOffset":0,"componentType":5126,"count":24,"type":"VEC2"},{"bufferView":12,"byteOffset":0,"componentType":5123,"count":36,"type":"SCALAR"},{"bufferView":13,"byteOffset":0,"componentType":5126,"count":24,"max":[0.00116577395237982,0.00116210128180683,0.0399406626820564],"min":[-0.00115842826199,-0.00116210128181,0.0000572287826798856],"type":"VEC3"},{"bufferView":14,"byteOffset":0,"componentType":5126,"count":24,"type":"VEC3"},{"bufferView":15,"byteOffset":0,"componentType":5126,"count":24,"type":"VEC2"},{"bufferView":16,"byteOffset":0,"componentType":5123,"count":36,"type":"SCALAR"},{"bufferView":17,"byteOffset":0,"componentType":5126,"count":24,"max":[0.0199406612664461,0.00116210128180683,0.00115842826198786],"min":[-0.0199427716434,-0.00116210128181,-0.00116577558219],"type":"VEC3"},{"bufferView":18,"byteOffset":0,"componentType":5126,"count":24,"type":"VEC3"},{"bufferView":19,"byteOffset":0,"componentType":5126,"count":24,"type":"VEC2"}],"asset":{"generator":"FBX2glTF v0.13.1","version":"2.0"},"bufferViews":[{"buffer":0,"byteLength":240,"byteOffset":0,"target":34963},{"buffer":0,"byteLength":864,"byteOffset":240,"target":34962},{"buffer":0,"byteLength":864,"byteOffset":1104,"target":34962},{"buffer":0,"byteLength":576,"byteOffset":1968,"target":34962},{"buffer":0,"byteLength":240,"byteOffset":2544,"target":34963},{"buffer":0,"byteLength":864,"byteOffset":2784,"target":34962},{"buffer":0,"byteLength":864,"byteOffset":3648,"target":34962},{"buffer":0,"byteLength":576,"byteOffset":4512,"target":34962},{"buffer":0,"byteLength":72,"byteOffset":5088,"target":34963},{"buffer":0,"byteLength":288,"byteOffset":5160,"target":34962},{"buffer":0,"byteLength":288,"byteOffset":5448,"target":34962},{"buffer":0,"byteLength":192,"byteOffset":5736,"target":34962},{"buffer":0,"byteLength":72,"byteOffset":5928,"target":34963},{"buffer":0,"byteLength":288,"byteOffset":6000,"target":34962},{"buffer":0,"byteLength":288,"byteOffset":6288,"target":34962},{"buffer":0,"byteLength":192,"byteOffset":6576,"target":34962},{"buffer":0,"byteLength":72,"byteOffset":6768,"target":34963},{"buffer":0,"byteLength":288,"byteOffset":6840,"target":34962},{"buffer":0,"byteLength":288,"byteOffset":7128,"target":34962},{"buffer":0,"byteLength":192,"byteOffset":7416,"target":34962}],"buffers":[{"byteLength":7608,"uri":"door.bin"}],"materials":[{"alphaMode":"OPAQUE","doubleSided":false,"extras":{"fromFBX":{"isTruePBR":false,"shadingModel":"Lambert"}},"name":"DefaultMaterial","pbrMetallicRoughness":{"baseColorFactor":[0.5,0.5,0.5,1],"metallicFactor":0.200000002980232,"roughnessFactor":0.800000011920929}}],"meshes":[{"name":"Cube","primitives":[{"attributes":{"NORMAL":2,"POSITION":1,"TEXCOORD_0":3},"indices":0,"material":0,"mode":4}]},{"name":"Cube.001","primitives":[{"attributes":{"NORMAL":6,"POSITION":5,"TEXCOORD_0":7},"indices":4,"material":0,"mode":4}]},{"name":"Cube.002","primitives":[{"attributes":{"NORMAL":10,"POSITION":9,"TEXCOORD_0":11},"indices":8,"material":0,"mode":4}]},{"name":"Cube.003","primitives":[{"attributes":{"NORMAL":14,"POSITION":13,"TEXCOORD_0":15},"indices":12,"material":0,"mode":4}]},{"name":"Cube.004","primitives":[{"attributes":{"NORMAL":18,"POSITION":17,"TEXCOORD_0":19},"indices":16,"material":0,"mode":4}]}],"nodes":[{"children":[1,2,3,4,5,6],"name":"Empty","rotation":[0.000000021855694143369,0,0,1],"scale":[100,100,100],"translation":[0,0,0]},{"mesh":0,"name":"Cube","rotation":[-0.70710682868957,0,0,0.707106709480286],"scale":[1,0.769128084182739,1],"translation":[0.0199999995529652,0,0]},{"mesh":1,"name":"Cube.001","rotation":[-0.70710682868957,0,0,0.707106709480286],"scale":[1,0.769128084182739,1],"translation":[-0.01999999955297,0,0]},{"mesh":2,"name":"Cube.002","rotation":[-0.70710682868957,0,0,0.707106709480286],"scale":[1,0.844971418380737,1],"translation":[0.0199999995529652,0,0]},{"mesh":3,"name":"Cube.003","rotation":[-0.70710682868957,0,0,0.707106709480286],"scale":[1,0.844971418380737,1],"translation":[-0.01999999955297,0,0]},{"mesh":4,"name":"Cube.004","rotation":[-0.70710682868957,0,0,0.707106709480286],"scale":[1.05434250831604,0.788702368736267,1],"translation":[0,0.0399619154632092,-0.00000000174679]},{"name":"Cube.005","rotation":[-0.70710682868957,0,0,0.707106709480286],"scale":[0.234084442257881,0.197794675827026,0.234084442257881],"translation":[0,0,0]}],"samplers":[{}],"scene":0,"scenes":[{"name":"Root Scene","nodes":[0]}]}