{"accessors":[{"bufferView":0,"byteOffset":0,"componentType":5126,"count":4,"max":[0.100000001490116],"min":[0],"type":"SCALAR"},{"bufferView":1,"byteOffset":0,"componentType":5126,"count":4,"type":"VEC3"},{"bufferView":2,"byteOffset":0,"componentType":5126,"count":4,"type":"VEC4"},{"bufferView":3,"byteOffset":0,"componentType":5126,"count":4,"type":"VEC3"},{"bufferView":4,"byteOffset":0,"componentType":5126,"count":4,"type":"VEC4"},{"bufferView":5,"byteOffset":0,"componentType":5126,"count":4,"type":"VEC4"},{"bufferView":6,"byteOffset":0,"componentType":5126,"count":4,"type":"VEC3"},{"bufferView":7,"byteOffset":0,"componentType":5126,"count":4,"type":"VEC4"},{"bufferView":8,"byteOffset":0,"componentType":5126,"count":4,"type":"VEC4"},{"bufferView":9,"byteOffset":0,"componentType":5126,"count":4,"type":"VEC4"},{"bufferView":10,"byteOffset":0,"componentType":5126,"count":4,"type":"VEC4"},{"bufferView":11,"byteOffset":0,"componentType":5126,"count":4,"type":"VEC4"},{"bufferView":12,"byteOffset":0,"componentType":5126,"count":13,"max":[0.400000005960464],"min":[0],"type":"SCALAR"},{"bufferView":13,"byteOffset":0,"componentType":5126,"count":13,"type":"VEC3"},{"bufferView":14,"byteOffset":0,"componentType":5123,"count":408,"type":"SCALAR"},{"bufferView":15,"byteOffset":0,"componentType":5126,"count":408,"max":[0.0228763949126005,0.0121894953772426,0.0377547405660152],"min":[-0.01544133108109,-0.01603259705007,-0.18709427118301],"type":"VEC3"},{"bufferView":16,"byteOffset":0,"componentType":5126,"count":408,"type":"VEC3"},{"bufferView":17,"byteOffset":0,"componentType":5126,"count":408,"type":"VEC4"},{"bufferView":18,"byteOffset":0,"componentType":5126,"count":408,"type":"VEC2"},{"bufferView":19,"byteOffset":0,"componentType":5123,"count":408,"type":"VEC4"},{"bufferView":20,"byteOffset":0,"componentType":5126,"count":408,"type":"VEC4"},{"bufferView":21,"byteOffset":0,"componentType":5126,"count":10,"type":"MAT4"}],"animations":[{"channels":[{"sampler":0,"target":{"node":2,"path":"translation"}},{"sampler":1,"target":{"node":4,"path":"rotation"}},{"sampler":2,"target":{"node":5,"path":"translation"}},{"sampler":3,"target":{"node":5,"path":"rotation"}},{"sampler":4,"target":{"node":6,"path":"rotation"}},{"sampler":5,"target":{"node":8,"path":"translation"}},{"sampler":6,"target":{"node":8,"path":"rotation"}},{"sampler":7,"target":{"node":9,"path":"rotation"}},{"sampler":8,"target":{"node":11,"path":"rotation"}},{"sampler":9,"target":{"node":12,"path":"rotation"}},{"sampler":10,"target":{"node":13,"path":"rotation"}}],"name":"Armature|FingerFlick","samplers":[{"input":0,"interpolation":"LINEAR","output":1},{"input":0,"interpolation":"LINEAR","output":2},{"input":0,"interpolation":"LINEAR","output":3},{"input":0,"interpolation":"LINEAR","output":4},{"input":0,"interpolation":"LINEAR","output":5},{"input":0,"interpolation":"LINEAR","output":6},{"input":0,"interpolation":"LINEAR","output":7},{"input":0,"interpolation":"LINEAR","output":8},{"input":0,"interpolation":"LINEAR","output":9},{"input":0,"interpolation":"LINEAR","output":10},{"input":0,"interpolation":"LINEAR","output":11}]},{"channels":[{"sampler":0,"target":{"node":2,"path":"translation"}}],"name":"Armature|Indle","samplers":[{"input":12,"interpolation":"LINEAR","output":13}]}],"asset":{"generator":"FBX2glTF v0.13.1","version":"2.0"},"bufferViews":[{"buffer":0,"byteLength":16,"byteOffset":0},{"buffer":0,"byteLength":48,"byteOffset":16},{"buffer":0,"byteLength":64,"byteOffset":64},{"buffer":0,"byteLength":48,"byteOffset":128},{"buffer":0,"byteLength":64,"byteOffset":176},{"buffer":0,"byteLength":64,"byteOffset":240},{"buffer":0,"byteLength":48,"byteOffset":304},{"buffer":0,"byteLength":64,"byteOffset":352},{"buffer":0,"byteLength":64,"byteOffset":416},{"buffer":0,"byteLength":64,"byteOffset":480},{"buffer":0,"byteLength":64,"byteOffset":544},{"buffer":0,"byteLength":64,"byteOffset":608},{"buffer":0,"byteLength":52,"byteOffset":672},{"buffer":0,"byteLength":156,"byteOffset":724},{"buffer":0,"byteLength":816,"byteOffset":880,"target":34963},{"buffer":0,"byteLength":4896,"byteOffset":1696,"target":34962},{"buffer":0,"byteLength":4896,"byteOffset":6592,"target":34962},{"buffer":0,"byteLength":6528,"byteOffset":11488,"target":34962},{"buffer":0,"byteLength":3264,"byteOffset":18016,"target":34962},{"buffer":0,"byteLength":3264,"byteOffset":21280,"target":34962},{"buffer":0,"byteLength":6528,"byteOffset":24544,"target":34962},{"buffer":0,"byteLength":640,"byteOffset":31072}],"buffers":[{"byteLength":31712,"uri":"hand.bin"}],"materials":[{"alphaMode":"OPAQUE","doubleSided":false,"extras":{"fromFBX":{"isTruePBR":false,"shadingModel":"Phong"}},"name":"Material","pbrMetallicRoughness":{"baseColorFactor":[0.800000011920929,0.800000011920929,0.800000011920929,1],"metallicFactor":0.400000005960464,"roughnessFactor":0.272165536880493}}],"meshes":[{"name":"Mesh","primitives":[{"attributes":{"COLOR_0":17,"JOINTS_0":19,"NORMAL":16,"POSITION":15,"TEXCOORD_0":18,"WEIGHTS_0":20},"indices":14,"material":0,"mode":4}]}],"nodes":[{"mesh":0,"name":"Mesh 1","rotation":[0.000000021855694143369,0,0,1],"scale":[67.4594879150391,67.4594879150391,67.4594879150391],"skin":0,"translation":[0,-0.00000054833839,12.5445184707642]},{"children":[2],"name":"Armature","rotation":[0.0000000218556959197258,0,0,1],"scale":[553.479797363281,553.479797363281,553.479797363281],"translation":[0,0,0]},{"children":[3],"name":"Bone","rotation":[0.70297235250473,-0,-0,0.711217164993286],"scale":[1,0.999999940395355,0.999999940395355],"translation":[-0,-0.00025096177706,-0.00040248892037]},{"children":[4],"name":"Bone.001","rotation":[-0.30286958813667,-0.00000011239374,-0.00000003973035,0.95303201675415],"scale":[1,1,1],"translation":[-0,0.0109353624284267,0]},{"children":[5,8,11],"name":"Bone.002","rotation":[-0.19171585142612,0.129729196429253,-0.115967489779,0.965902090072632],"scale":[1,1,1],"translation":[-0,0.00897879526019096,-0.00000000059605]},{"children":[6],"name":"Bone.003","rotation":[0.392162621021271,0.00383265595883131,0.0248196423053741,0.91955304145813],"scale":[1,1,1.00000011920929],"translation":[-0.00045390721061,0.00409274222329259,0.00014501065015792]},{"children":[7],"name":"Bone.004","rotation":[0.118447437882423,0.00072039104998111,-0.01140768732876,0.992894530296326],"scale":[0.99999988079071,1,1],"translation":[0.00000000100582830953044,0.00162248185370117,0.000000000130385161001279]},{"name":"Bone.004_end","rotation":[0.00000000000000000346944695195361,0.0000000000000000008673617379884,-0,1],"scale":[1,1,1],"translation":[0,0.00188060314394534,0.00000000000000000111022299980974]},{"children":[9],"name":"Bone.005","rotation":[0.391875147819519,0.00194190267939121,0.0411063320934772,0.919097602367401],"scale":[1,1,1],"translation":[0.00099126598797738,0.00415372801944613,0.000118027885037]},{"children":[10],"name":"Bone.006","rotation":[0.111418128013611,-0.06943763792515,0.0304270125925541,0.990877687931061],"scale":[1,1,1],"translation":[-0.00000000044703,0.00158856506459415,0.000000000465661287307739]},{"name":"Bone.006_end","rotation":[0.00000000000000000390312782094782,-0,-0,1],"scale":[1,1,1],"translation":[0,0.00184571638237685,0.00000000000000000111022299980974]},{"children":[12],"name":"Bone.007","rotation":[0.251112818717957,-0.0780298486352,-0.09625720977783,0.959993898868561],"scale":[1,0.99999988079071,0.99999988079071],"translation":[0.00135937600862235,0.00100968882907182,0.00019559464999474]},{"children":[13],"name":"Bone.008","rotation":[0.160167410969734,0.0320134870707989,0.170898735523224,0.971655905246735],"scale":[1.00000011920929,1,0.99999988079071],"translation":[-0.00000000014901,0.00175940780900419,0.000000000856816728678211]},{"children":[14],"name":"Bone.009","rotation":[-0.06818812340498,0.0289776138961315,-0.05315559357405,0.995833873748779],"scale":[1.00000011920929,1,1],"translation":[0.0000000000372529021519519,0.00117237435188144,-0.00000000046566]},{"name":"Bone.009_end","rotation":[-0,0.0000000000000000138777878078145,0.0000000000000000277555756156289,1],"scale":[1,1,1],"translation":[0.00000000000000000027755574995243,0.00134930806234479,0]}],"samplers":[{}],"scene":0,"scenes":[{"name":"Root Scene","nodes":[0,1]}],"skins":[{"inverseBindMatrices":21,"joints":[2,3,4,5,6,8,9,11,12,13],"skeleton":2},{"joints":[2,3,4,5,6,7,8,9,10,11,12,13,14]}]}