{"accessors":[{"bufferView":0,"byteOffset":0,"componentType":5126,"count":49,"max":[1.60000002384186],"min":[0],"type":"SCALAR"},{"bufferView":1,"byteOffset":0,"componentType":5126,"count":49,"type":"VEC3"},{"bufferView":2,"byteOffset":0,"componentType":5126,"count":49,"type":"VEC4"},{"bufferView":3,"byteOffset":0,"componentType":5126,"count":49,"type":"VEC4"},{"bufferView":4,"byteOffset":0,"componentType":5126,"count":49,"type":"VEC4"},{"bufferView":5,"byteOffset":0,"componentType":5126,"count":49,"type":"VEC4"},{"bufferView":6,"byteOffset":0,"componentType":5126,"count":49,"type":"VEC4"},{"bufferView":7,"byteOffset":0,"componentType":5126,"count":49,"type":"VEC4"},{"bufferView":8,"byteOffset":0,"componentType":5126,"count":49,"type":"VEC4"},{"bufferView":9,"byteOffset":0,"componentType":5126,"count":49,"type":"VEC3"},{"bufferView":10,"byteOffset":0,"componentType":5126,"count":49,"type":"VEC4"},{"bufferView":11,"byteOffset":0,"componentType":5126,"count":49,"type":"VEC3"},{"bufferView":12,"byteOffset":0,"componentType":5126,"count":49,"type":"VEC4"},{"bufferView":13,"byteOffset":0,"componentType":5123,"count":948,"type":"SCALAR"},{"bufferView":14,"byteOffset":0,"componentType":5126,"count":624,"max":[0.0403187274932861,0.0174144972115755,0.114077299833298],"min":[-0.04031872749329,-0.05804030224681,-0.03446597233415],"type":"VEC3"},{"bufferView":15,"byteOffset":0,"componentType":5126,"count":624,"type":"VEC3"},{"bufferView":16,"byteOffset":0,"componentType":5126,"count":624,"type":"VEC2"},{"bufferView":17,"byteOffset":0,"componentType":5123,"count":624,"type":"VEC4"},{"bufferView":18,"byteOffset":0,"componentType":5126,"count":624,"type":"VEC4"},{"bufferView":19,"byteOffset":0,"componentType":5123,"count":519,"type":"SCALAR"},{"bufferView":20,"byteOffset":0,"componentType":5126,"count":305,"max":[0.0271190945059061,-0.00402452982962,0.142767801880836],"min":[-0.0294994879514,-0.07595238089561,0.0771883055567741],"type":"VEC3"},{"bufferView":21,"byteOffset":0,"componentType":5126,"count":305,"type":"VEC3"},{"bufferView":22,"byteOffset":0,"componentType":5126,"count":305,"type":"VEC2"},{"bufferView":23,"byteOffset":0,"componentType":5123,"count":305,"type":"VEC4"},{"bufferView":24,"byteOffset":0,"componentType":5126,"count":305,"type":"VEC4"},{"bufferView":25,"byteOffset":0,"componentType":5123,"count":402,"type":"SCALAR"},{"bufferView":26,"byteOffset":0,"componentType":5126,"count":278,"max":[0.0128077873960137,0.0189707186073065,0.0161435604095459],"min":[-0.01283349934965,-0.05399687588215,-0.00439025880769],"type":"VEC3"},{"bufferView":27,"byteOffset":0,"componentType":5126,"count":278,"type":"VEC3"},{"bufferView":28,"byteOffset":0,"componentType":5126,"count":278,"type":"VEC2"},{"bufferView":29,"byteOffset":0,"componentType":5123,"count":278,"type":"VEC4"},{"bufferView":30,"byteOffset":0,"componentType":5126,"count":278,"type":"VEC4"},{"bufferView":31,"byteOffset":0,"componentType":5126,"count":13,"type":"MAT4"},{"bufferView":32,"byteOffset":0,"componentType":5126,"count":13,"type":"MAT4"}],"animations":[{"channels":[{"sampler":0,"target":{"node":4,"path":"translation"}},{"sampler":1,"target":{"node":4,"path":"rotation"}},{"sampler":2,"target":{"node":5,"path":"rotation"}},{"sampler":3,"target":{"node":6,"path":"rotation"}},{"sampler":4,"target":{"node":7,"path":"rotation"}},{"sampler":5,"target":{"node":9,"path":"rotation"}},{"sampler":6,"target":{"node":10,"path":"rotation"}},{"sampler":7,"target":{"node":11,"path":"rotation"}},{"sampler":8,"target":{"node":15,"path":"translation"}},{"sampler":9,"target":{"node":15,"path":"rotation"}},{"sampler":10,"target":{"node":20,"path":"translation"}},{"sampler":11,"target":{"node":20,"path":"rotation"}}],"name":"Armature|Walking","samplers":[{"input":0,"interpolation":"LINEAR","output":1},{"input":0,"interpolation":"LINEAR","output":2},{"input":0,"interpolation":"LINEAR","output":3},{"input":0,"interpolation":"LINEAR","output":4},{"input":0,"interpolation":"LINEAR","output":5},{"input":0,"interpolation":"LINEAR","output":6},{"input":0,"interpolation":"LINEAR","output":7},{"input":0,"interpolation":"LINEAR","output":8},{"input":0,"interpolation":"LINEAR","output":9},{"input":0,"interpolation":"LINEAR","output":10},{"input":0,"interpolation":"LINEAR","output":11},{"input":0,"interpolation":"LINEAR","output":12}]}],"asset":{"generator":"FBX2glTF v0.13.1","version":"2.0"},"bufferViews":[{"buffer":0,"byteLength":196,"byteOffset":0},{"buffer":0,"byteLength":588,"byteOffset":196},{"buffer":0,"byteLength":784,"byteOffset":784},{"buffer":0,"byteLength":784,"byteOffset":1568},{"buffer":0,"byteLength":784,"byteOffset":2352},{"buffer":0,"byteLength":784,"byteOffset":3136},{"buffer":0,"byteLength":784,"byteOffset":3920},{"buffer":0,"byteLength":784,"byteOffset":4704},{"buffer":0,"byteLength":784,"byteOffset":5488},{"buffer":0,"byteLength":588,"byteOffset":6272},{"buffer":0,"byteLength":784,"byteOffset":6860},{"buffer":0,"byteLength":588,"byteOffset":7644},{"buffer":0,"byteLength":784,"byteOffset":8232},{"buffer":0,"byteLength":1896,"byteOffset":9016,"target":34963},{"buffer":0,"byteLength":7488,"byteOffset":10912,"target":34962},{"buffer":0,"byteLength":7488,"byteOffset":18400,"target":34962},{"buffer":0,"byteLength":4992,"byteOffset":25888,"target":34962},{"buffer":0,"byteLength":4992,"byteOffset":30880,"target":34962},{"buffer":0,"byteLength":9984,"byteOffset":35872,"target":34962},{"buffer":0,"byteLength":1038,"byteOffset":45856,"target":34963},{"buffer":0,"byteLength":3660,"byteOffset":46896,"target":34962},{"buffer":0,"byteLength":3660,"byteOffset":50556,"target":34962},{"buffer":0,"byteLength":2440,"byteOffset":54216,"target":34962},{"buffer":0,"byteLength":2440,"byteOffset":56656,"target":34962},{"buffer":0,"byteLength":4880,"byteOffset":59096,"target":34962},{"buffer":0,"byteLength":804,"byteOffset":63976,"target":34963},{"buffer":0,"byteLength":3336,"byteOffset":64780,"target":34962},{"buffer":0,"byteLength":3336,"byteOffset":68116,"target":34962},{"buffer":0,"byteLength":2224,"byteOffset":71452,"target":34962},{"buffer":0,"byteLength":2224,"byteOffset":73676,"target":34962},{"buffer":0,"byteLength":4448,"byteOffset":75900,"target":34962},{"buffer":0,"byteLength":832,"byteOffset":80348},{"buffer":0,"byteLength":832,"byteOffset":81180}],"buffers":[{"byteLength":82012,"uri":"LegsBot.bin"}],"materials":[{"alphaMode":"OPAQUE","doubleSided":false,"extras":{"fromFBX":{"isTruePBR":false,"shadingModel":"Lambert"}},"name":"DefaultMaterial","pbrMetallicRoughness":{"baseColorFactor":[0.5,0.5,0.5,1],"metallicFactor":0.200000002980232,"roughnessFactor":0.800000011920929}},{"alphaMode":"OPAQUE","doubleSided":false,"extras":{"fromFBX":{"isTruePBR":false,"shadingModel":"Lambert"}},"name":"DefaultMaterial 1","pbrMetallicRoughness":{"baseColorFactor":[0.5,0.5,0.5,1],"metallicFactor":0.200000002980232,"roughnessFactor":0.800000011920929}}],"meshes":[{"name":"legs","primitives":[{"attributes":{"JOINTS_0":17,"NORMAL":15,"POSITION":14,"TEXCOORD_0":16,"WEIGHTS_0":18},"indices":13,"material":1,"mode":4}]},{"name":"body","primitives":[{"attributes":{"JOINTS_0":23,"NORMAL":21,"POSITION":20,"TEXCOORD_0":22,"WEIGHTS_0":24},"indices":19,"material":1,"mode":4}]},{"name":"Gun","primitives":[{"attributes":{"JOINTS_0":29,"NORMAL":27,"POSITION":26,"TEXCOORD_0":28,"WEIGHTS_0":30},"indices":25,"material":1,"mode":4}]}],"nodes":[{"mesh":0,"name":"legs","rotation":[-0.79725229740143,-0,0.0000000000000000214945628411538,0.603646278381348],"scale":[38.6230697631836,38.6230735778809,38.6230735778809],"skin":0,"translation":[0,-3.35345935821533,-0.15682080388069]},{"mesh":2,"name":"Gun","rotation":[-0.70710682868957,-0,0.0000000000000000242347987979439,0.707106709480286],"scale":[38.6230697631836,38.6230697631836,38.6230697631836],"translation":[0.00000000000000124527776938364,1.79460644721985,0.37879091501236]},{"mesh":1,"name":"body","rotation":[-0.79725229740143,-0,0.0000000000000000214945628411538,0.603646278381348],"scale":[38.6230697631836,38.6230735778809,38.6230735778809],"skin":1,"translation":[0,-3.35345935821533,-0.15682080388069]},{"children":[4,13,15,18,20],"name":"Armature","rotation":[-0.70710682868957,0,0,0.707106709480286],"scale":[204.836959838867,204.836959838867,204.836959838867],"translation":[0,0,0]},{"children":[5,9],"name":"Body","rotation":[0.765586376190186,0,0,0.64333313703537],"scale":[1,1,1],"translation":[0,-0.00015949753288,-0.0027781680692]},{"children":[6],"name":"Leg1_L","rotation":[0.690260291099548,-0.15343011915684,-0.69026017189026,0.153430134057999],"scale":[0.999999940395355,1.00000023841858,1],"translation":[0.00455525051802397,0.00297189760021865,-0.0030993570108]},{"children":[7],"name":"Leg2_L","rotation":[0.000000105621872137363,0.0000000463675604578384,-0.73442053794861,0.678694725036621],"scale":[1.00000011920929,1,1],"translation":[-0.00000000003274,0.0112409759312868,-0.00000000014244]},{"children":[8],"name":"Leg3_L","rotation":[-0.0000001040717,-0.0000000075535,0.511803984642029,0.859102249145508],"scale":[0.999999701976776,0.99999988079071,1],"translation":[-0.00000000160281,0.00958766229450703,-0.00000000015909]},{"name":"Leg3_L_end","rotation":[0,0,0,1],"scale":[1,1,1],"translation":[0,0.00876531843096018,0]},{"children":[10],"name":"Leg1_R","rotation":[0.554067432880402,0.439328372478485,0.554067254066467,0.43932831287384],"scale":[0.999999940395355,1.00000011920929,1],"translation":[-0.00455525051802,0.00297189760021865,-0.0030993570108]},{"children":[11],"name":"Leg2_R","rotation":[0.000000102088890230334,-0.00000004812894,0.709837734699249,0.704365193843842],"scale":[1,0.99999988079071,1],"translation":[-0.00000000057681,0.0112409759312868,0.000000000196952482101054]},{"children":[12],"name":"Leg3_R","rotation":[-0.00000010187255,0.00000000761065255261428,-0.50099593400955,0.865449666976929],"scale":[0.999999821186066,0.999999821186066,1],"translation":[0.00000000124557231195865,0.0095876632258296,0.000000000443011044515274]},{"name":"Leg3_R_end","rotation":[0,-0,0,1],"scale":[1,1,1],"translation":[0,0.00876531843096018,0.00000000000000000055511149990487]},{"children":[14],"name":"kneeIK_L","rotation":[0.707106828689575,0.0000000309086196637054,-0.70710676908493,0.0000000309086196637054],"scale":[1,1,1],"translation":[0.00455525051802397,-0.01768678799272,-0.00484617380425]},{"name":"kneeIK_L_end","rotation":[-0,0.00000000000000000000000602886631,0,1],"scale":[1,1,1],"translation":[0.00000000000000000055511149990487,0.0101853227242827,0]},{"children":[16],"name":"heelIK_L","rotation":[0.00000000000000000000000000000446,-0.70710664987564,0.00000000000000000000000000000446,0.70710688829422],"scale":[1,1,1],"translation":[0.00455525051802397,0.0115478336811066,-0.02028135582805]},{"children":[17],"name":"Leg4_L","rotation":[-0.00000019163481,-0.00000000012236,0.988290309906006,0.152585163712502],"scale":[0.999999403953552,0.99999988079071,1],"translation":[-0.00000000388143,-0.00000000119209,-0.00000000007462]},{"name":"Leg4_L_end","rotation":[-0,-0,0,1],"scale":[1,1,1],"translation":[-0,0.00393459666520357,0]},{"children":[19],"name":"kneeIK_R","rotation":[0.707106828689575,-0.00000003090862,0.70710676908493,0.0000000309086196637054],"scale":[1,1,1],"translation":[-0.00455525051802,-0.01768678799272,-0.00484617380425]},{"name":"kneeIK_R_end","rotation":[-0,-0,-0,1],"scale":[1,1,1],"translation":[-0,0.0101853227242827,0]},{"children":[21],"name":"heelIK_R","rotation":[0.00000000000000000000000000000446,0.707106649875641,-0,0.70710688829422],"scale":[1,1,1],"translation":[-0.00455525051802,-0.0093545736745,-0.01955373957753]},{"children":[22],"name":"Leg4_R","rotation":[0.000000191634811130825,-0.00000000012236,0.988290309906006,-0.1525851637125],"scale":[0.999999403953552,0.99999988079071,1],"translation":[0.00000000388143162055599,-0.00000000655651,0.0000000000670476660302732]},{"name":"Leg4_R_end","rotation":[-0,-0,0,1],"scale":[1,1,1],"translation":[0,0.00393459666520357,0]}],"samplers":[{}],"scene":0,"scenes":[{"name":"Root Scene","nodes":[0,1,2,3]}],"skins":[{"inverseBindMatrices":31,"joints":[4,5,6,7,9,10,11,13,15,16,18,20,21],"skeleton":4},{"inverseBindMatrices":32,"joints":[4,5,6,7,9,10,11,13,15,16,18,20,21],"skeleton":4},{"joints":[4,5,6,7,8,9,10,11,12]},{"joints":[13,14]},{"joints":[15,16,17]},{"joints":[18,19]},{"joints":[20,21,22]}]}