{"accessors":[{"bufferView":0,"byteOffset":0,"componentType":5123,"count":72,"type":"SCALAR"},{"bufferView":1,"byteOffset":0,"componentType":5126,"count":48,"max":[0.00035406227107159,0.0009782196721062,0.00595619203522801],"min":[-0.00035406227107,-0.00097821967211,-0.00177478045225],"type":"VEC3"},{"bufferView":2,"byteOffset":0,"componentType":5126,"count":48,"type":"VEC3"},{"bufferView":3,"byteOffset":0,"componentType":5126,"count":48,"type":"VEC2"}],"asset":{"generator":"FBX2glTF v0.13.1","version":"2.0"},"bufferViews":[{"buffer":0,"byteLength":144,"byteOffset":0,"target":34963},{"buffer":0,"byteLength":576,"byteOffset":144,"target":34962},{"buffer":0,"byteLength":576,"byteOffset":720,"target":34962},{"buffer":0,"byteLength":384,"byteOffset":1296,"target":34962}],"buffers":[{"byteLength":1680,"uri":"warning.bin"}],"materials":[{"alphaMode":"OPAQUE","doubleSided":false,"extras":{"fromFBX":{"isTruePBR":false,"shadingModel":"Phong"}},"name":"Material","pbrMetallicRoughness":{"baseColorFactor":[0.800000011920929,0.800000011920929,0.800000011920929,1],"metallicFactor":0.400000005960464,"roughnessFactor":0.272165536880493}}],"meshes":[{"name":"Cube","primitives":[{"attributes":{"NORMAL":2,"POSITION":1,"TEXCOORD_0":3},"indices":0,"material":0,"mode":4}]}],"nodes":[{"mesh":0,"name":"Cube","rotation":[-0.70710682868957,0,0,0.707106709480286],"scale":[100,100,100],"translation":[0,0,0]}],"samplers":[{}],"scene":0,"scenes":[{"name":"Root Scene","nodes":[0]}]}